<svg xmlns="http://www.w3.org/2000/svg"  viewBox="0 0 48 48" width="48px" height="48px"><path fill="#74cccf" d="M35.718,43.986c-3.092,0.147-7.816,0.585-12.801,0.556c-2.809-0.016-10.211,0.173-10.211,0.173	c-4.728,0-8.45-3.76-9.041-8.451c-0.202-1.601-0.767-4.98-0.58-6.478c0.398-3.196-0.219-8.009-0.083-9.326	c0.617-5.993,0.318-6.244,0.083-8.308C2.549,7.453,6.923,3.356,11.646,3.59c4.112,0.203,12.317,1.221,16.447,0.854	c3.11-0.276,5.41-0.727,7.224-0.854c4.717-0.33,8.529,2.544,8.561,8.561c0.009,1.612,0.585,3.57,0.527,6.425	c-0.07,3.469-0.495,6.546-0.527,8.105c-0.047,2.285-0.008,6.856,0,9.142C43.894,40.55,42.147,43.679,35.718,43.986z"/><path fill="#010101" d="M12.718,45.215c-4.812,0-8.912-3.822-9.549-8.889c-0.038-0.303-0.089-0.671-0.146-1.078	c-0.25-1.792-0.593-4.247-0.434-5.524c0.243-1.95,0.094-4.603-0.014-6.541c-0.07-1.252-0.125-2.241-0.07-2.775	c0.516-5.003,0.388-5.929,0.195-7.331c-0.037-0.265-0.075-0.545-0.112-0.869C2.333,9.977,3.13,7.692,4.774,5.939	c1.79-1.908,4.371-2.968,6.896-2.849c1.284,0.063,2.983,0.208,4.781,0.36c3.917,0.332,8.791,0.745,11.596,0.496	c1.625-0.145,3.025-0.336,4.26-0.506c1.125-0.155,2.097-0.288,2.974-0.349c2.527-0.177,4.811,0.548,6.421,2.041	c1.734,1.608,2.659,4.035,2.675,7.017c0.003,0.624,0.098,1.313,0.207,2.113c0.167,1.215,0.354,2.592,0.32,4.324	c-0.042,2.096-0.212,4.042-0.349,5.606c-0.089,1.015-0.165,1.891-0.178,2.499c-0.038,1.801-0.021,5.06-0.008,7.439l0.008,1.69	c0.02,5.707-2.644,8.379-8.636,8.665l0,0c-0.854,0.041-1.834,0.104-2.909,0.173c-2.806,0.181-6.296,0.4-9.919,0.384	C20.14,45.031,12.792,45.213,12.718,45.215z M11.267,4.081c-2.124,0-4.255,0.935-5.763,2.542c-1.464,1.561-2.147,3.504-1.923,5.472	c0.036,0.316,0.074,0.588,0.109,0.846c0.203,1.473,0.336,2.447-0.191,7.57c-0.047,0.456,0.009,1.458,0.074,2.617	c0.116,2.085,0.261,4.68,0.007,6.72c-0.143,1.146,0.204,3.623,0.433,5.262c0.057,0.412,0.109,0.784,0.148,1.091	c0.575,4.569,4.248,8.014,8.544,8.014c0.061-0.001,7.438-0.179,10.214-0.173c3.582,0.024,7.059-0.202,9.849-0.382	c1.082-0.069,2.066-0.133,2.926-0.174l0,0c5.475-0.261,7.701-2.48,7.684-7.662l-0.008-1.688c-0.013-2.385-0.03-5.651,0.008-7.465	c0.013-0.641,0.091-1.533,0.182-2.565c0.135-1.549,0.304-3.477,0.345-5.54c0.034-1.653-0.149-2.989-0.311-4.168	c-0.114-0.834-0.212-1.555-0.216-2.243c-0.015-2.699-0.829-4.873-2.355-6.289c-1.425-1.322-3.389-1.938-5.671-1.776	c-0.843,0.059-1.799,0.19-2.907,0.342c-1.246,0.171-2.659,0.365-4.307,0.511C25.245,5.201,20.53,4.8,16.368,4.447	c-1.79-0.151-3.479-0.295-4.747-0.357C11.503,4.083,11.385,4.081,11.267,4.081z"/><path fill="#c0e6ed" d="M17.521,40.02l-0.188-0.295c-0.121-0.235-0.063-0.513,0.177-0.849l0.046-0.064l0.063-0.047 c0.073-0.055,7.403-5.468,9.469-7.267c2.233-1.947,4.59-4.684,4.557-5.922c-0.033-1.272-0.099-1.447-1.697-1.752 c-0.822-0.156-2.045-0.246-3.354-0.246c-1.505,0-2.94,0.117-4.042,0.33c-2.396,0.462-6.104,1.522-7.591,2.305 c-1.518,0.8-2.03,1.393-2.332,1.867c-0.279,0.441-0.253,0.631-0.238,0.679c0.033,0.108,0.206,0.197,0.307,0.24 c0.468,0.202,0.974,0.304,1.503,0.304c0.449,0,0.75-0.077,0.753-0.078l2.279-0.598l-1.838,1.472 c-0.062,0.049-0.634,0.478-1.901,0.478c-0.204,0-0.427-0.012-0.671-0.037c-0.717-0.075-1.402-0.436-1.79-0.939 c-0.242-0.314-0.348-0.666-0.298-0.988c0.104-0.681,0.755-1.601,1.161-2.007c0.66-0.66,2.736-2.024,5.498-2.874 c1.058-0.325,4.672-1.41,6.781-1.725c1.086-0.162,3.175-0.434,4.972-0.434c0.63,0,1.179,0.033,1.633,0.1 c1.71,0.25,3.647,0.534,3.861,2.311c0.19,1.563-0.443,2.59-1.32,4.01c-0.913,1.477-3.386,3.974-5.4,5.453 c-2.061,1.512-5.201,3.695-6.59,4.581c-1.5,0.956-2.598,1.595-3,1.824c-0.207,0.119-0.357,0.169-0.504,0.169H17.521z"/><path fill="#010101" d="M29.15,22.072c0.572,0,1.104,0.028,1.558,0.095c1.708,0.25,3.271,0.5,3.438,1.875 c0.167,1.375-0.375,2.271-1.25,3.688c-0.875,1.417-3.313,3.875-5.271,5.313c-1.959,1.438-5.125,3.646-6.563,4.563 c-1.32,0.842-2.396,1.479-2.979,1.813c-0.13,0.074-0.21,0.103-0.256,0.103c-0.163,0,0.09-0.353,0.09-0.353s7.396-5.458,9.5-7.292 c2.023-1.762,4.771-4.729,4.729-6.313c-0.042-1.583-0.354-1.896-2.104-2.229c-0.852-0.162-2.109-0.255-3.448-0.255 c-1.412,0-2.916,0.104-4.135,0.339c-2.375,0.458-6.146,1.521-7.729,2.354c-1.483,0.781-2.125,1.417-2.521,2.042 c-0.495,0.782-0.447,1.327,0.292,1.646c0.632,0.272,1.237,0.345,1.702,0.345c0.532,0,0.881-0.095,0.881-0.095 s-0.459,0.367-1.587,0.367c-0.188,0-0.395-0.01-0.621-0.034c-0.979-0.103-1.729-0.813-1.646-1.354 c0.083-0.542,0.667-1.375,1.021-1.729c0.597-0.597,2.583-1.917,5.292-2.75c1.43-0.44,4.75-1.417,6.708-1.708 C25.687,22.286,27.573,22.072,29.15,22.072 M29.15,21.072L29.15,21.072c-1.827,0-3.947,0.275-5.048,0.439 c-2.148,0.32-5.79,1.414-6.855,1.742c-2.868,0.882-4.983,2.277-5.705,2.999c-0.291,0.292-1.156,1.337-1.302,2.284 c-0.071,0.46,0.07,0.946,0.397,1.371c0.476,0.617,1.273,1.04,2.132,1.13c0.249,0.026,0.493,0.04,0.726,0.04 c1.372,0,2.04-0.449,2.212-0.586l3.757-3.006l-4.644,1.26c0,0,0,0,0,0c-0.001,0-0.249,0.06-0.62,0.06 c-0.446,0-0.872-0.083-1.266-0.246c0.025-0.054,0.063-0.123,0.117-0.209c0.265-0.419,0.727-0.947,2.142-1.692 c1.448-0.762,5.09-1.801,7.453-2.257c1.072-0.207,2.473-0.321,3.946-0.321c1.279,0,2.468,0.087,3.261,0.238 c1.264,0.241,1.264,0.241,1.292,1.273c0.021,0.804-1.65,3.148-4.386,5.532c-2.05,1.786-9.363,7.187-9.437,7.241l-0.128,0.094 l-0.092,0.129c-0.354,0.495-0.426,0.956-0.214,1.368c0.18,0.349,0.539,0.566,0.938,0.566c0.303,0,0.561-0.125,0.752-0.235 c0.402-0.23,1.502-0.869,3.021-1.838c1.529-0.975,4.754-3.232,6.617-4.6c2.058-1.511,4.59-4.072,5.53-5.593 c0.895-1.45,1.603-2.595,1.392-4.333c-0.261-2.155-2.493-2.482-4.285-2.744C30.376,21.107,29.803,21.072,29.15,21.072L29.15,21.072 z"/><path fill="#010101" d="M33.587,21.427c-0.531,0-1.06,0.191-1.617,0.584c-0.895,0.632-1.861,2.133-1.861,3.458	c0,1.118,0.176,1.925,0.726,3.32c0.529,1.342,0.77,1.954,1.431,2.579c0.003,0.003,0.006,0.006,0.009,0.009	c-0.285,0.362-0.635,0.777-1.024,1.177c-1.224,1.258-2.988,2.943-3.563,3.349c-0.672,0.474-1.507,1.064-1.302,1.925	c0.084,0.354,0.387,0.763,0.983,0.85c0.155,0.023,0.303,0.034,0.446,0.034c0.672,0,1.263-0.257,1.862-0.81	c0.501-0.462,1.83-1.689,3.105-3.295l0.462-0.577c0.598-0.745,1.276-1.589,1.89-2.476c0.371-0.535,0.908-1.238,1.381-1.858	c0.484-0.633,0.901-1.18,1.106-1.499c0.346-0.538,0.405-1.022,0.177-1.44c-0.191-0.35-0.564-0.568-0.973-0.568	c-0.354,0-0.708,0.16-0.924,0.417c-0.233,0.276-0.506,0.592-0.799,0.923c0.007-0.389,0.048-0.798,0.197-1.419	c0.442-1.832,0.746-3.537-0.384-4.263C34.477,21.564,34.042,21.427,33.587,21.427L33.587,21.427z"/><path fill="#d6e5e5" d="M22.896,31.702c-0.129,0-0.554-0.054-0.603-0.75c-0.001-0.399,2.37-9.668,3.146-11.056 c0.829-1.482,1.636-2.295,2.617-2.635c0.241-0.084,0.492-0.128,0.727-0.128c0.627,0,1.078,0.326,1.178,0.851 c0.161,0.845-0.037,1.381-0.541,2.264c-0.385,0.672-1.34,2.293-2.371,4.036c0.916-0.455,1.944-0.877,2.43-1.063 c0.248-0.096,0.435-0.138,0.605-0.138c0.345,0,0.78,0.171,0.896,0.987c0.1,0.698-0.216,1.513-0.52,2.221 c-0.321,0.748-0.927,0.947-1.628,1.178l-0.158,0.053c-0.448,0.149-0.985,0.18-1.459,0.206c-0.265,0.016-0.664,0.038-0.768,0.086 c-0.069,0.039-0.159,0.089-0.056,0.503c0.072,0.231,0.886,0.928,2.047,1.532c0.968,0.502,2.482,0.826,2.498,0.829 c0.25,0.053,0.42,0.287,0.394,0.541c-0.026,0.255-0.241,0.448-0.497,0.448c-0.045,0-1.118-0.003-1.925-0.228 c-0.842-0.233-2.232-0.858-3.148-1.558c-0.605-0.461-0.918-0.778-1.157-1.135c-0.647,1.359-1.094,2.432-1.099,2.444 C23.45,31.319,23.29,31.702,22.896,31.702z"/><path fill="#010101" d="M28.783,17.634c0.337,0,0.625,0.125,0.686,0.444c0.125,0.656,0.016,1.047-0.484,1.922 s-1.969,3.359-3.313,5.625c-0.041,0.069-0.081,0.145-0.122,0.216c0.432-0.363,0.992-0.74,1.56-1.028 c0.907-0.461,2.005-0.917,2.547-1.125c0.175-0.067,0.315-0.105,0.427-0.105c0.234,0,0.345,0.163,0.401,0.558 c0.083,0.583-0.234,1.37-0.484,1.953c-0.25,0.583-0.734,0.703-1.484,0.953s-1.932,0.12-2.307,0.328 c-0.375,0.208-0.427,0.563-0.302,1.063s1.26,1.313,2.302,1.854c1.042,0.542,2.625,0.875,2.625,0.875s-1.042,0-1.792-0.208 s-2.104-0.807-2.979-1.474C25.188,28.818,25,28.5,24.708,27.917c-0.057-0.114-0.084-0.207-0.109-0.3 c-0.78,1.557-1.412,3.035-1.557,3.383c-0.063,0.15-0.11,0.202-0.146,0.202c-0.084,0-0.104-0.286-0.104-0.286 c0-0.125,2.292-9.359,3.083-10.776c0.792-1.417,1.531-2.125,2.344-2.406C28.401,17.671,28.599,17.634,28.783,17.634 M28.783,16.634 C28.783,16.634,28.783,16.634,28.783,16.634c-0.289,0-0.597,0.054-0.891,0.155c-1.091,0.378-2.009,1.287-2.89,2.863 c-0.836,1.497-3.21,10.873-3.21,11.264c0,0.024,0.001,0.047,0.003,0.071c0.084,1.181,0.998,1.215,1.102,1.215 c0.272,0,0.772-0.106,1.069-0.818c0.018-0.044,0.313-0.749,0.761-1.721c0.193,0.187,0.429,0.386,0.731,0.616 c0.967,0.737,2.431,1.396,3.318,1.642c0.857,0.238,1.939,0.245,2.059,0.245c0.512,0,0.941-0.387,0.994-0.896 s-0.287-0.976-0.788-1.082c-0.015-0.003-1.465-0.313-2.37-0.784c-0.81-0.421-1.442-0.891-1.709-1.16 c0.098-0.007,0.199-0.013,0.283-0.017c0.505-0.029,1.077-0.061,1.588-0.231l0.157-0.052c0.748-0.246,1.521-0.501,1.93-1.456 c0.33-0.771,0.673-1.663,0.555-2.488c-0.183-1.279-1.034-1.417-1.391-1.417c-0.235,0-0.478,0.053-0.786,0.172 c-0.235,0.09-0.595,0.235-1.008,0.412c0.782-1.325,1.306-2.219,1.563-2.67c0.556-0.973,0.788-1.612,0.598-2.605 C30.306,17.127,29.651,16.634,28.783,16.634L28.783,16.634L28.783,16.634z"/><path fill="#d6e5e5" d="M32,33.984c0.719-0.906,1.563-1.917,2.313-3c0.75-1.083,2.094-2.745,2.469-3.328	c0.239-0.371,0.155-0.467,0.045-0.467c-0.063,0-0.135,0.031-0.159,0.061c-0.526,0.625-1.182,1.359-1.729,1.953	c-0.155,0.168-0.289,0.241-0.401,0.241c-0.281,0-0.427-0.457-0.427-1.022c0-0.792-0.073-1.339,0.219-2.547	c0.292-1.208,0.63-2.813,0.047-3.188c-0.266-0.171-0.521-0.26-0.788-0.26c-0.319,0-0.654,0.129-1.04,0.401	c-0.708,0.5-1.438,1.724-1.438,2.641c0,0.917,0.115,1.578,0.656,2.953c0.542,1.375,0.714,1.771,1.188,2.219	c0.256,0.242,0.481,0.305,0.644,0.305c0.173,0,0.278-0.07,0.278-0.07s-0.797,1.234-1.906,2.375	c-1.071,1.102-2.995,2.969-3.703,3.469c-0.708,0.5-1.166,0.908-0.75,0.969c0.104,0.015,0.204,0.024,0.301,0.024	c0.397,0,0.748-0.143,1.184-0.545C29.542,36.667,30.797,35.5,32,33.984z"/><g><path fill="#d6e5e5" d="M13.772,30.654c-0.203-0.011-0.82-0.082-1.008-0.125c-1.345-0.31-2.159-1.081-2.029-1.918 c0.104-0.681,0.755-1.601,1.161-2.007c0.611-0.611,2.439-1.828,4.902-2.68c-0.951-0.759-2.15-1.788-2.642-2.344 c-1.162-1.312-1.187-3.896-0.054-5.763c1.188-1.957,2.791-3.011,4.609-4.092c1.245-0.74,3.488-1.314,4.587-1.314 c0.006,0,0.106,0.002,0.112,0.002c0.947,0.036,1.814,0.09,2.851,0.387c0.897,0.256,1.814,1.023,2.281,1.458 c0.691,0.645,1.054,1.401,1.02,2.131c-0.021,0.435-0.197,1.069-0.924,1.628c-0.509,0.392-1.84,1.16-3.248,1.974 c-1.036,0.598-2.106,1.216-2.63,1.565c-0.639,0.426-1.104,1.061-1.188,1.617c-0.035,0.235,0.004,0.424,0.115,0.56 c0.557,0.682,0.832,1.079,1.331,1.801l0.167,0.241c0.738,1.068,0.474,2.411-0.709,3.594c-1.078,1.079-3.503,2.184-4.767,2.534 l-0.539,0.154c-0.982,0.283-2.097,0.604-3.132,0.604C14.041,30.662,13.861,30.659,13.772,30.654z M18.233,24.996 c-1.455,0.44-2.61,0.87-3.271,1.217c-1.519,0.8-2.03,1.393-2.332,1.867c-0.229,0.362-0.218,0.529-0.202,0.584 c0.032,0.112,0.206,0.212,0.308,0.262c0.2,0.081,0.631,0.197,1.37,0.215c0.001,0,0.002,0,0.002,0c1.859,0,4.407-1.186,4.713-2.15 C19.1,26.104,18.727,25.405,18.233,24.996z"/><path fill="#010101" d="M23.298,10.913c0.033,0,0.065,0.001,0.095,0.002c0.979,0.037,1.786,0.096,2.731,0.367 c0.725,0.208,1.534,0.837,2.078,1.344c0.939,0.875,1.289,2.106,0.132,2.997c-0.871,0.67-4.645,2.715-5.851,3.519 s-1.785,2.174-1.182,2.911c0.603,0.737,0.871,1.139,1.473,2.009c0.603,0.871,0.354,1.951-0.651,2.955s-3.341,2.071-4.547,2.406 c-1.127,0.313-2.393,0.74-3.538,0.74c-0.08,0-0.16-0.002-0.239-0.007c-0.197-0.011-0.784-0.081-0.926-0.114 c-1.063-0.245-1.729-0.813-1.646-1.354c0.083-0.542,0.667-1.375,1.021-1.729c0.597-0.597,2.583-1.917,5.292-2.75 c0.093-0.029,0.208-0.063,0.316-0.096c-0.972-0.72-2.738-2.197-3.327-2.862c-0.969-1.094-1.063-3.422,0-5.172 c1.095-1.803,2.555-2.802,4.438-3.922C20.09,11.49,22.25,10.913,23.298,10.913 M14.194,29.642c1.939,0,4.708-1.25,5.103-2.501 c0.396-1.254-0.244-2.218-0.968-2.695c-1.449,0.429-2.803,0.906-3.6,1.325c-1.483,0.781-2.125,1.417-2.521,2.042 c-0.476,0.752-0.354,1.24,0.307,1.563c0.261,0.107,0.746,0.246,1.578,0.266C14.127,29.641,14.16,29.642,14.194,29.642 M23.298,9.913c-1.186,0-3.509,0.592-4.841,1.384c-1.878,1.117-3.534,2.208-4.781,4.262c-1.259,2.074-1.213,4.865,0.106,6.354 c0.401,0.453,1.22,1.181,2.022,1.847c-2.127,0.845-3.667,1.896-4.262,2.491c-0.291,0.291-1.156,1.337-1.302,2.284 c-0.171,1.112,0.797,2.109,2.41,2.481c0.231,0.053,0.885,0.126,1.095,0.138c0.097,0.005,0.196,0.008,0.295,0.008 c1.105,0,2.255-0.331,3.27-0.624c0.181-0.052,0.36-0.104,0.536-0.153c1.349-0.375,3.832-1.509,4.986-2.663 c1.367-1.367,1.654-2.949,0.766-4.232l-0.163-0.235c-0.491-0.711-0.788-1.14-1.359-1.838c-0.009-0.011-0.023-0.068-0.008-0.171 c0.05-0.336,0.375-0.878,0.97-1.275c0.51-0.34,1.573-0.954,2.6-1.547c1.424-0.823,2.77-1.6,3.305-2.012 c0.878-0.675,1.093-1.461,1.118-2.001c0.042-0.879-0.377-1.774-1.178-2.52c-0.499-0.465-1.485-1.287-2.485-1.574 c-1.09-0.312-2.026-0.369-2.969-0.405L23.298,9.913L23.298,9.913z M12.976,28.48c0.019-0.037,0.044-0.081,0.077-0.133 c0.265-0.419,0.727-0.947,2.142-1.692c0.592-0.312,1.612-0.696,2.905-1.096c0.231,0.265,0.431,0.685,0.243,1.28 c-0.199,0.63-2.409,1.802-4.149,1.802l-0.077-0.001C13.52,28.627,13.165,28.544,12.976,28.48L12.976,28.48z"/></g><g><path fill="#010101" d="M18.203,25.453c-0.104,0-0.209-0.032-0.299-0.099l-1.531-1.141c-0.222-0.165-0.268-0.479-0.103-0.7 c0.167-0.222,0.479-0.266,0.7-0.103l1.531,1.141c0.222,0.165,0.268,0.479,0.103,0.7C18.506,25.384,18.355,25.453,18.203,25.453z"/></g></svg>